<svg width="1400" height="1305" viewBox="0 0 1400 1305" fill="none" xmlns="http://www.w3.org/2000/svg">
<path d="M445.926 907.745C451.224 869.583 463.108 825.817 481.21 777.659C500.125 728.048 522.497 679.744 548.171 633.08C574.895 584.101 604.729 536.78 637.502 491.392C668.212 448.358 702.323 407.706 739.527 369.803C773.633 335.354 806.01 309.401 835.333 292.658C863.589 276.487 887.946 269.597 907.703 272.096C927.46 274.594 941.551 286.375 949.683 307.259C958.071 328.678 959.653 359.057 954.355 397.219C949.057 435.381 937.173 479.326 919.072 527.305C900.159 576.922 877.774 625.228 852.073 671.884C825.401 720.881 795.603 768.214 762.853 813.608C732.132 856.633 698.022 897.285 660.828 935.197C626.502 969.647 594.235 995.599 564.948 1012.34C536.655 1028.51 512.299 1035.4 492.579 1032.9C472.858 1030.41 458.73 1018.63 450.599 997.741C442.174 976.322 440.628 945.943 445.926 907.781V907.745ZM443.093 910.601C421.018 1068.46 518.443 1080.88 660.387 938.303C802.331 795.723 935.223 552.258 957.151 394.399C979.079 236.54 881.838 224.117 740.078 366.697C598.319 509.277 465.242 752.742 443.277 910.601H443.093Z" stroke="white" stroke-opacity="0.08" stroke-width="0.5"/>
<path d="M421.348 903.425C431.208 861.551 448.133 814.179 471.679 763.023C495.984 710.594 523.695 659.717 554.645 610.697C586.386 559.998 621.216 511.183 658.951 464.511C693.652 421.02 731.785 380.212 773.006 342.457C810.644 308.579 845.229 283.911 875.803 269.168C905.236 254.888 929.887 250.426 948.761 255.852C967.636 261.278 979.961 276.343 985.296 300.618C990.815 325.607 988.607 359.735 978.747 401.574C968.887 443.413 951.962 490.821 928.415 541.977C904.113 594.412 876.389 645.291 845.413 694.303C813.685 745.001 778.867 793.816 741.144 840.489C706.362 883.979 668.155 924.786 626.868 962.542C589.23 996.42 554.645 1021.09 524.108 1035.83C494.674 1050.11 470.024 1054.57 451.149 1049.15C432.275 1043.72 419.95 1028.66 414.615 1004.38C409.096 979.392 411.267 945.264 421.164 903.425H421.348ZM418.073 906.21C377.271 1079.31 470.392 1106.12 626.059 965.969C781.726 825.816 941.035 571.928 981.837 398.79C1022.64 225.651 929.519 198.877 773.815 339.03C618.112 479.183 458.876 733.071 418.073 906.21Z" stroke="white" stroke-opacity="0.08" stroke-width="0.5"/>
<path d="M397.949 895.286C415.483 843.532 437.642 793.364 464.174 745.352C494.12 690.501 527.427 637.441 563.917 586.457C600.718 534.509 640.607 484.684 683.381 437.237C722.141 393.809 764.348 353.393 809.614 316.362C850.417 283.555 887.098 260.672 918.629 248.249C949.13 236.254 973.56 234.54 991.293 243.108C1009.03 251.676 1019.11 270.096 1021.32 297.87C1023.6 326.643 1017.27 364.234 1002.51 409.606C984.995 461.365 962.835 511.535 936.289 559.541C906.487 614.366 873.315 667.402 836.951 718.364C800.138 770.304 760.25 820.128 717.487 867.584C678.727 911.012 636.52 951.428 591.254 988.459C550.452 1021.27 513.77 1044.15 482.202 1056.57C451.739 1068.57 427.309 1070.28 409.575 1061.71C391.841 1053.15 381.76 1034.72 379.553 1006.95C377.272 978.178 383.6 940.588 398.353 895.215L397.949 895.286ZM395.005 897.892C333.967 1085.56 421.312 1127.76 590.003 992.208C758.694 856.66 944.641 594.668 1005.68 407.036C1066.72 219.404 979.373 177.173 810.681 312.72C641.99 448.268 455.602 710.332 394.674 897.963L395.005 897.892Z" stroke="white" stroke-opacity="0.08" stroke-width="0.5"/>
<path d="M376.278 883.113C399.471 828.235 427.217 775.275 459.244 724.754C530.576 611.189 614.777 505.722 710.276 410.321C752.831 367.45 798.871 327.971 847.952 292.265C891.697 261.136 930.219 240.431 962.448 230.792C993.611 221.475 1017.64 222.796 1033.79 234.719C1049.94 246.642 1057.52 268.526 1056.23 299.798C1054.94 332.176 1044.16 373.265 1024.22 421.887C1001.03 476.765 973.283 529.725 941.256 580.246C905.74 637.011 866.885 691.744 824.883 744.174C783.004 796.803 738.044 847.055 690.224 894.679C647.658 937.551 601.605 977.03 552.512 1012.73C508.803 1043.86 470.282 1064.57 438.015 1074.21C406.889 1083.53 382.827 1082.2 366.712 1070.28C350.597 1058.36 342.981 1036.47 344.232 1005.2C345.557 972.824 356.337 931.735 376.278 883.113ZM372.599 885.648C290.111 1086.81 369.876 1145.5 550.783 1016.73C731.689 887.968 945.193 620.478 1027.68 419.352C1110.17 218.226 1030.4 159.502 849.497 288.267C668.591 417.032 455.087 684.486 372.599 885.648Z" stroke="white" stroke-opacity="0.08" stroke-width="0.5"/>
<path d="M356.484 866.62C385.506 809.051 419.011 753.712 456.705 701.085C497.925 642.911 542.477 587.026 590.15 533.695C636.978 480.957 686.914 430.895 739.709 383.76C791.88 337.352 841.844 299.298 888.238 270.382C934.633 241.466 974.663 223.509 1007.22 217.048C1038.68 210.801 1061.86 215.442 1076.14 230.863C1090.41 246.285 1095.08 271.738 1090.01 306.437C1084.71 342.386 1069.18 386.759 1043.76 438.522C1014.76 496.106 981.258 551.446 943.537 604.057C902.341 662.239 857.801 718.125 810.129 771.447C763.301 824.185 713.364 874.247 660.569 921.382C608.398 967.79 558.435 1005.84 512.04 1034.76C465.645 1063.68 425.616 1081.63 393.055 1088.09C361.598 1094.34 338.419 1089.7 324.143 1074.28C309.868 1058.86 305.195 1033.4 310.273 998.705C315.534 962.756 331.097 918.383 356.484 866.62V866.62ZM352.804 869.012C247.763 1082.38 318.183 1158.42 510.053 1038.87C701.924 919.311 942.543 649.358 1047.58 435.988C1152.63 222.617 1082.21 146.579 890.335 266.134C698.465 385.688 457.735 655.641 352.694 869.012H352.804Z" stroke="white" stroke-opacity="0.08" stroke-width="0.5"/>
<path d="M339.486 845.665C374.44 785.838 413.851 728.568 457.404 674.312C504.279 615.347 554.505 558.963 607.847 505.422C659.435 453.192 714.154 403.962 771.718 357.986C828.194 313.256 881.542 277.343 930.218 251.247C978.894 225.152 1020.14 210.587 1052.59 207.659C1083.94 204.875 1105.94 213.157 1117.93 232.256C1129.92 251.354 1131.32 280.342 1122.13 318.361C1112.56 357.629 1091.96 405.18 1060.9 459.335C1025.94 519.154 986.526 576.423 942.985 630.688C896.088 689.635 845.864 746.018 792.542 799.578C740.915 851.82 686.146 901.051 628.524 947.013C572.085 991.744 518.736 1027.66 470.024 1053.75C421.311 1079.85 380.178 1094.48 347.69 1097.41C316.344 1100.2 294.342 1091.91 282.348 1072.82C270.354 1053.72 268.919 1024.73 278.153 986.71C287.719 947.442 308.323 899.891 339.375 845.736L339.486 845.665ZM335.365 847.878C207.035 1071.96 265.902 1165.95 467.485 1058.11C669.068 950.262 936.399 681.237 1064.88 457.193C1193.35 233.148 1134.19 139.047 932.793 246.892C731.394 354.738 463.879 623.762 335.365 847.807V847.878Z" stroke="white" stroke-opacity="0.08" stroke-width="0.5"/>
<path d="M325.321 819.962C366.255 758.457 411.636 699.848 461.12 644.575C513.578 585.461 569.405 529.243 628.34 476.184C684.523 425.197 743.869 377.594 806.045 333.64C866.531 291.23 922.823 258.28 973.449 235.683C1024.07 213.086 1065.91 202.162 1097.88 203.233C1128.75 204.304 1149.09 216.441 1158.44 239.36C1167.78 262.278 1165.58 294.728 1151.89 335.924C1137.76 378.763 1111.86 428.741 1074.96 485.038C1034.03 546.54 988.666 605.15 939.195 660.425C886.76 719.547 830.945 775.766 772.013 828.815C715.825 879.812 656.466 927.416 594.27 971.36C533.821 1013.77 477.493 1046.72 426.904 1069.32C376.315 1091.91 334.445 1102.84 302.473 1101.77C271.605 1100.7 251.222 1088.56 241.913 1065.64C232.605 1042.72 234.776 1010.27 248.462 969.075C262.59 926.415 288.492 876.259 325.394 819.962H325.321ZM321.237 821.818C168.624 1054.57 214.54 1167.45 423.887 1073.92C633.233 980.392 926.502 715.936 1079.01 483.181C1231.51 250.426 1185.7 137.547 976.355 231.078C767.009 324.608 473.777 589.063 321.09 821.818H321.237Z" stroke="white" stroke-opacity="0.08" stroke-width="0.5"/>
<path d="M314.761 789.475C361.692 726.878 413.081 667.545 468.552 611.91C526.402 553.377 587.65 498.097 651.997 446.34C712.432 397.303 776.054 352.087 842.469 310.971C906.524 271.703 965.391 242.465 1017.41 223.974C1069.44 205.482 1111.53 198.985 1142.51 204.339C1172.42 209.587 1190.74 225.758 1197 252.64C1203.25 279.521 1197 315.362 1178.6 359.486C1159.58 405.18 1128.23 457.692 1085.41 515.524C1038.53 578.106 987.22 637.438 931.837 693.089C873.977 751.613 812.73 806.893 748.392 858.659C687.956 907.696 624.334 952.912 557.919 994.028C493.865 1033.3 434.997 1062.53 382.974 1081.03C330.95 1099.52 288.86 1106.02 257.881 1100.66C227.969 1095.41 209.61 1079.24 203.355 1052.36C197.1 1025.48 203.355 989.637 221.751 945.514C240.772 899.82 272.119 847.307 314.945 789.475H314.761ZM310.677 790.975C133.524 1030.16 164.355 1162.24 379.515 1085.77C594.675 1009.31 912.778 753.313 1089.97 514.025C1267.16 274.737 1236.29 142.759 1021.09 219.226C805.898 295.692 487.684 551.687 310.493 790.975H310.677Z" stroke="white" stroke-opacity="0.08" stroke-width="0.5"/>
<path d="M308.286 754.241C361.109 691.232 418.411 631.887 479.774 576.64C542.774 519.47 609.188 465.949 678.671 416.353C742.979 369.991 810.478 327.947 880.696 290.516C947.841 255.281 1008.73 230.471 1061.64 216.762C1114.55 203.054 1156.27 201.269 1185.7 211.622C1214.14 221.51 1229.85 242.037 1232.76 272.738C1235.67 303.439 1225.14 342.707 1201.85 389.508C1177.72 437.915 1140.74 492.284 1091.92 551.116C1039.1 614.124 981.793 673.47 920.431 728.716C857.423 785.877 791.01 839.398 721.534 889.003C657.297 935.233 589.885 977.158 519.766 1014.48C452.584 1049.72 391.73 1074.53 338.823 1088.24C285.916 1101.95 243.826 1103.73 214.393 1093.56C185.953 1083.67 170.242 1063.14 167.299 1032.44C164.356 1001.74 174.952 962.471 198.241 915.67C222.487 867.262 259.463 812.893 308.286 754.241ZM303.944 755.347C102.067 998.669 115.827 1149.96 334.629 1093.27C553.431 1036.58 894.456 793.402 1096.22 550.009C1297.99 306.616 1284.34 155.396 1065.54 212.086C846.737 268.775 505.675 511.954 303.944 755.347V755.347Z" stroke="white" stroke-opacity="0.08" stroke-width="0.5"/>
<path d="M306.373 713.687C364.948 651.002 428.033 592.428 495.153 538.407C562.968 483.408 634.236 432.546 708.546 386.116C776.19 343.315 847.012 305.442 920.432 272.809C990.116 242.429 1052.4 222.831 1105.57 214.585C1158.73 206.338 1199.57 209.872 1226.98 225.294C1253.47 240.073 1266.35 265.098 1265.28 299.726C1264.22 334.353 1249.28 376.728 1220.8 425.813C1191.37 476.612 1148.69 532.338 1093.94 591.455C1035.38 654.14 972.308 712.714 905.2 766.735C837.378 821.726 766.11 872.587 691.806 919.025C624.104 961.835 553.219 999.708 479.737 1032.33C410.053 1062.71 347.764 1082.31 294.6 1090.56C241.435 1098.8 200.559 1095.27 173.186 1079.85C146.733 1065.07 133.855 1040.04 134.922 1005.42C135.989 970.788 151 928.414 179.441 879.186C208.874 828.387 251.59 772.661 306.3 713.544L306.373 713.687ZM301.958 714.222C75.5769 958.758 70.1685 1129.29 290.221 1095.13C510.274 1060.96 871.94 835.027 1098.32 590.491C1324.7 345.956 1330.11 175.423 1110.06 209.587C890.005 243.75 528.339 469.83 301.958 714.365V714.222Z" stroke="white" stroke-opacity="0.08" stroke-width="0.5"/>
<path d="M309.39 668.564C373.433 606.983 442.037 550.034 514.652 498.175C586.783 446.212 662.371 398.927 740.923 356.63C811.503 318.114 885.195 285.234 961.271 258.316C1032.83 233.684 1095.86 220.118 1148.62 217.977C1201.38 215.835 1240.6 225.116 1265.47 245.929C1289.42 265.92 1298.87 295.55 1293.58 333.997C1288.28 372.444 1268.48 417.746 1234.71 468.688C1199.79 521.45 1151.37 577.926 1090.85 636.471C1026.79 698.036 958.191 754.984 885.589 806.861C813.454 858.816 737.866 906.1 659.319 948.406C588.737 986.878 515.045 1019.71 438.971 1046.58C367.448 1071.21 304.423 1084.77 251.663 1086.92C198.903 1089.06 159.683 1079.78 134.812 1058.96C110.86 1038.97 101.405 1009.34 106.703 970.896C112.001 932.449 131.795 887.147 165.57 836.205C200.486 783.443 248.867 726.967 309.427 668.422L309.39 668.564ZM305.085 668.422C54.642 911.315 28.5197 1100.73 246.733 1091.84C464.946 1082.95 844.787 879.186 1095.23 636.436C1345.67 393.685 1371.76 204.482 1153.55 213.193C935.332 221.903 555.455 425.814 305.048 668.564L305.085 668.422Z" stroke="white" stroke-opacity="0.08" stroke-width="0.5"/>
<path d="M317.927 618.336C387.133 558.713 460.932 504.305 538.679 455.586C614.658 407.566 694.073 364.869 776.318 327.821C856.414 291.908 932.611 264.92 1002.81 247.606C1075.44 229.757 1138.46 222.867 1190.04 227.508C1241.63 232.149 1278.75 247.82 1300.42 274.202C1321.28 299.655 1326.84 333.961 1316.94 376.121C1307.04 418.281 1282.21 466.225 1243.13 518.559C1202.66 572.714 1148.62 629.224 1082.46 686.664C1013.26 746.295 939.465 800.704 861.712 849.414C785.75 897.441 706.347 940.138 624.11 977.179C544.013 1013.09 467.817 1040.08 397.618 1057.39C324.954 1075.24 261.966 1082.13 210.347 1077.49C158.728 1072.85 121.678 1057.18 99.9707 1030.8C79.1464 1005.35 73.5908 971.039 83.4879 928.879C93.3849 886.719 118.22 838.775 157.293 786.441C197.764 732.286 251.811 675.775 317.927 618.336V618.336ZM313.732 617.944C40.1469 855.268 -8.6025 1063.14 204.828 1082.2C418.258 1101.27 813 924.381 1086.55 687.056C1360.1 449.732 1408.88 241.859 1195.45 222.974C982.022 204.09 587.244 380.619 313.732 617.944Z" stroke="white" stroke-opacity="0.08" stroke-width="0.5"/>
<path d="M332.423 563.61C477.972 452.237 640.47 363.479 814.104 300.511C896.444 271.131 973.928 251.14 1044.35 241.144C1117.27 230.792 1179.41 231.613 1229.04 243.608C1278.68 255.602 1312.86 278.057 1330.63 310.328C1347.74 341.529 1349.02 380.512 1334.12 426.206C1319.22 471.9 1289.24 522.092 1244.75 575.248C1198.73 630.295 1139.16 686.163 1067.71 741.389C993.851 798.162 915.361 849.021 833.015 893.465C753.79 936.678 671.197 973.799 585.993 1004.49C503.616 1033.87 426.169 1053.86 355.712 1063.85C282.827 1074.21 220.685 1073.39 171.016 1061.39C121.347 1049.4 87.2408 1026.94 69.4703 994.671C52.3252 963.47 51.0743 924.487 65.975 878.793C80.8758 833.099 110.935 782.8 155.527 729.751C201.554 674.704 261.12 618.836 332.533 563.61H332.423ZM328.486 562.646C33.0462 791.117 -39.986 1016.27 165.35 1066C370.686 1115.72 776.613 970.753 1072.02 742.424C1367.42 514.096 1440.45 288.802 1235.15 239.074C1029.85 189.346 623.779 334.318 328.449 562.646H328.486Z" stroke="white" stroke-opacity="0.08" stroke-width="0.5"/>
<path d="M353.282 504.529C431.366 451.436 514.096 405.088 600.524 366.018C682.252 328.597 767.198 298.184 854.389 275.13C938.128 253.282 1015.98 241.288 1085.74 239.431C1157.96 237.575 1218.19 246.571 1265.17 266.705C1312.16 286.839 1342.44 316.255 1355.75 354.631C1368.59 391.686 1364.95 435.309 1344.9 484.324C1324.85 533.338 1289.42 585.244 1239.6 638.649C1188.09 693.91 1123.19 748.315 1046.89 800.399C968.792 853.477 886.062 899.824 799.643 938.91C717.913 976.326 632.968 1006.74 545.778 1029.8C462.039 1051.65 384.188 1063.64 314.43 1065.5C242.17 1067.35 181.979 1058.18 134.995 1038.22C88.0119 1018.27 57.7321 988.674 44.3766 950.298C31.5362 913.243 35.2154 869.619 55.4142 820.605C75.613 771.59 110.86 719.685 160.713 666.28C212.222 611.018 277.123 556.613 353.429 504.529H353.282ZM349.75 502.887C34.1852 718.257 -64.6381 959.829 128.998 1042.47C322.634 1125.11 735.514 1017.48 1051.08 802.113C1366.64 586.743 1465.47 345.17 1271.83 262.528C1078.2 179.886 665.315 287.517 349.713 502.887H349.75Z" stroke="white" stroke-opacity="0.08" stroke-width="0.5"/>
<path d="M380.84 441.378C462.495 392.971 548.736 352.256 638.385 319.789C722.001 289.012 808.536 266.293 896.738 251.961C980.918 238.753 1058.14 235.718 1126.25 242.965C1196.74 250.676 1254.47 268.918 1297.55 297.298C1340.63 325.679 1366.68 362.841 1374.81 407.357C1382.76 450.196 1373.82 498.567 1348.29 550.58C1322.75 602.593 1282.06 655.748 1226.87 708.689C1169.88 763.451 1100.09 815.535 1019.44 863.479C937.785 911.886 851.544 952.601 761.895 985.068C678.271 1015.78 591.737 1038.44 503.542 1052.72C419.362 1065.93 342.135 1068.96 273.997 1061.71C203.356 1054.32 145.813 1036.26 102.693 1007.7C59.5727 979.142 33.5976 942.158 25.4298 897.642C17.5195 854.804 26.4231 806.432 51.9936 754.419C77.564 702.406 118.403 649.251 173.407 596.31C230.435 541.548 300.229 489.464 380.877 441.521L380.84 441.378ZM377.198 439.2C43.6786 637.328 -82.2236 893.465 96.0704 1011.49C274.364 1129.5 689.378 1064.21 1022.97 865.942C1356.56 667.672 1482.47 411.534 1304.17 293.514C1125.88 175.495 711.086 240.787 377.308 439.058L377.198 439.2Z" stroke="white" stroke-opacity="0.08" stroke-width="0.5"/>
<path d="M415.425 374.657C500.034 331.822 589.092 297.825 681.1 273.237C765.819 250.175 852.933 236.392 940.815 232.148C1024.37 228.578 1099.87 235.468 1165.25 252.639C1232.94 270.489 1286.66 298.369 1325.22 335.888C1363.78 373.408 1384.42 417.995 1386.92 468.937C1389.35 517.951 1374.7 570.5 1343.43 625.119C1312.16 679.738 1265.87 733.607 1205.79 785.298C1143.58 838.846 1069.22 887.611 985.039 930.342C900.429 973.177 811.372 1007.17 719.364 1031.76C634.645 1054.82 547.53 1068.61 459.649 1072.85C376.094 1076.42 300.56 1069.53 235.218 1052.36C167.52 1034.51 113.804 1006.63 75.2828 969.111C36.7615 931.591 15.7165 886.825 13.3618 836.062C10.9335 787.048 25.5768 734.499 56.8132 679.88C88.0496 625.261 134.408 571.392 194.489 519.701C256.704 466.153 331.024 417.388 415.425 374.657V374.657ZM412.261 371.551C63.215 548.367 -90.9803 817.463 68.1451 972.609C227.271 1127.76 638.973 1110.23 987.945 933.341C1336.92 756.454 1491.08 487.536 1332.13 332.39C1173.19 177.244 761.306 194.772 412.334 371.659L412.261 371.551Z" stroke="white" stroke-opacity="0.08" stroke-width="0.5"/>
<path d="M457.221 304.795C544.05 268.506 635.029 242.393 728.231 227.008C813.311 212.544 899.953 208.741 986.032 215.692C1067.75 222.831 1140.56 240.681 1201.93 268.347C1265.58 297.12 1314.51 335.532 1347.29 382.583C1379.76 428.429 1395.17 483.642 1390.96 539.121C1387.29 594.133 1366.57 650.786 1329.45 707.512C1292.33 764.237 1240.6 818.177 1175.73 867.87C1108.62 919.311 1030.26 963.863 942.912 1000.31C856.081 1036.6 765.103 1062.71 671.902 1078.1C586.822 1092.56 500.179 1096.37 414.101 1089.42C332.349 1082.28 259.574 1064.43 198.205 1036.76C134.518 1007.99 85.6215 969.575 52.8399 922.524C20.3781 876.676 4.99905 821.458 9.24133 765.986C12.9205 710.974 33.6344 654.285 70.9047 597.595C108.175 540.906 159.757 486.93 224.585 437.237C295.839 383.426 374.05 338.9 457.221 304.795V304.795ZM454.609 300.869C93.2007 451.731 -89.8763 731.358 45.739 925.594C181.354 1119.83 584.227 1154.92 945.671 1004.13C1307.12 853.34 1490.19 573.713 1354.54 379.405C1218.89 185.098 816.016 150.149 454.609 300.869Z" stroke="white" stroke-opacity="0.08" stroke-width="0.5"/>
<path d="M506.669 232.47C594.98 203.636 686.917 186.571 779.96 181.742C864.668 176.915 949.648 184.204 1032.17 203.376C1110.83 222.189 1179.34 251.569 1235.78 290.766C1294.2 331.319 1337.06 380.655 1363.19 437.344C1389.28 493.884 1397.37 556.7 1386.4 617.729C1376.06 678.596 1348.95 739.105 1305.79 797.365C1262.63 855.625 1205.72 908.995 1136.55 955.76C1061.75 1005.71 979.984 1045.03 893.721 1072.53C805.411 1101.36 713.474 1118.43 620.43 1123.26C535.71 1128.08 450.719 1120.79 368.184 1101.62C289.523 1082.81 221.016 1053.43 164.614 1014.23C106.078 973.68 63.1784 924.345 37.0561 867.656C10.9612 811.116 2.88909 748.296 13.8771 687.27C24.2157 626.404 51.3314 565.895 94.4516 507.635C137.572 449.375 194.563 396.005 263.695 349.24C338.487 299.285 420.257 259.964 506.522 232.47H506.669ZM504.351 227.829C134.261 347.955 -78.3236 635.507 29.7345 870.047C137.793 1104.59 525.507 1197.33 895.745 1077.1C1265.98 956.866 1478.6 669.421 1370.55 434.881C1262.49 200.341 874.773 107.596 504.499 227.829H504.351Z" stroke="white" stroke-opacity="0.08" stroke-width="0.5"/>
<path d="M563.587 158.36C652.714 137.98 744.559 131.14 835.848 138.083C919.521 144.126 1001.58 163.609 1078.67 195.736C1152.88 227.151 1215.95 269.061 1266.02 320.253C1316.41 370.812 1352.81 432.912 1371.83 500.781C1390.28 567.678 1390.41 638.089 1372.2 705.048C1354.65 771.555 1320.69 835.348 1271.65 894.679C1222.61 954.011 1160.54 1005.88 1087.43 1048.83C1009.7 1094.1 925.072 1127.16 836.694 1146.78C747.567 1167.16 655.721 1174 564.433 1167.06C480.759 1161.02 398.701 1141.53 321.606 1109.41C247.396 1077.99 184.335 1036.08 134.261 984.89C82.4945 931.77 46.843 871.047 28.4102 804.219C9.98361 737.319 9.8568 666.913 28.0423 599.952C45.6289 533.445 79.5511 469.652 128.595 410.32C177.639 350.989 239.743 299.262 312.849 256.317C390.581 211.037 475.206 177.976 563.587 158.36V158.36ZM562.078 152.898C186.984 237.682 -55.2548 530.089 20.9782 806.04C97.2112 1081.99 463.108 1236.89 838.202 1152.1C1213.3 1067.32 1455.54 774.91 1379.3 498.817C1303.07 222.724 937.173 68.1135 562.078 152.898V152.898Z" stroke="white" stroke-opacity="0.08" stroke-width="0.5"/>
<path d="M628.12 83.2854C717.354 72.3927 807.874 76.986 895.45 96.8509C977.264 115.143 1054.94 147.81 1124.63 193.237C1191.11 236.313 1247.91 292.018 1291.59 356.987C1335.09 421.858 1362.75 495.513 1372.46 572.334C1382.16 649.154 1373.66 727.111 1347.59 800.256C1321.42 873.561 1280.19 940.951 1226.39 998.348C1170.15 1058.84 1102.94 1108.81 1028.12 1145.78C866.625 1225.59 681.32 1247.67 504.719 1208.15C422.917 1189.86 345.256 1157.19 275.579 1111.76C209.093 1068.69 152.295 1012.98 108.617 948.013C65.0936 883.151 37.4144 809.499 27.6907 732.679C17.9669 655.858 26.4554 577.897 52.5087 504.743C78.7468 431.421 120.052 364.029 173.922 306.652C230.171 246.162 297.372 196.191 372.194 159.216C452.227 119.383 538.921 93.6721 628.23 83.2854H628.12ZM627.421 77.0025C252.142 121.697 -19.7508 415.64 20.3525 733.5C60.4558 1051.36 397.544 1272.73 772.97 1228C1148.4 1183.27 1420.14 889.36 1380.04 571.5C1339.93 253.639 1002.74 32.2721 627.31 77.0025H627.421Z" stroke="white" stroke-opacity="0.08" stroke-width="0.5"/>
<path d="M700.047 8.13972C853.257 8.23404 1001.72 59.7115 1120.3 153.852C1238.87 247.992 1320.26 379.008 1350.68 524.705C1381.1 670.402 1358.68 821.823 1287.22 953.318C1215.75 1084.81 1099.64 1188.3 958.548 1246.24C796.52 1311.34 614.532 1311.64 452.282 1247.06C290.031 1182.48 160.682 1058.27 92.45 901.514C24.218 744.761 22.6392 568.189 88.0581 410.311C153.477 252.433 280.585 126.061 441.657 58.7604C523.402 25.199 611.285 7.98209 700.047 8.13972V8.13972ZM700.047 1C567.246 1 437.427 39.2098 327.007 110.798C216.587 182.385 130.525 284.136 79.7045 403.182C28.8837 522.228 15.5867 653.223 41.4949 779.601C67.4031 905.98 131.353 1022.07 225.257 1113.18C319.162 1204.29 438.804 1266.34 569.053 1291.48C699.302 1316.62 834.309 1303.72 957.002 1254.41C1079.69 1205.1 1184.56 1121.59 1258.34 1014.45C1332.12 907.315 1371.5 781.354 1371.5 652.5C1371.5 566.944 1354.13 482.225 1320.39 403.182C1286.65 324.138 1237.19 252.317 1174.84 191.82C1112.49 131.323 1038.47 83.3334 957.002 50.5925C875.537 17.8515 788.224 1 700.047 1V1Z" stroke="white" stroke-opacity="0.08" stroke-width="0.5"/>
</svg>
