<svg width="759" height="782" viewBox="0 0 759 782" fill="none" xmlns="http://www.w3.org/2000/svg">
<path d="M267.341 543.795C270.513 520.95 277.626 494.751 288.462 465.923C299.785 436.225 313.178 407.309 328.547 379.375C344.544 350.055 362.403 321.728 382.022 294.558C400.405 268.797 420.825 244.462 443.096 221.772C463.512 201.15 482.894 185.614 500.447 175.592C517.362 165.911 531.942 161.787 543.769 163.283C555.596 164.779 564.031 171.831 568.899 184.332C573.92 197.154 574.867 215.34 571.696 238.184C568.524 261.029 561.411 287.335 550.575 316.056C539.253 345.758 525.853 374.675 510.468 402.604C494.502 431.934 476.664 460.269 457.059 487.442C438.669 513.198 418.25 537.533 395.985 560.228C375.437 580.85 356.121 596.386 338.59 606.408C321.653 616.089 307.073 620.213 295.268 618.717C283.463 617.221 275.006 610.169 270.138 597.668C265.095 584.846 264.17 566.66 267.341 543.816V543.795ZM265.645 545.504C252.431 640.002 310.751 647.438 395.721 562.087C480.691 476.736 560.243 330.993 573.37 236.496C586.496 141.998 528.286 134.562 443.426 219.913C358.566 305.264 278.904 451.007 265.755 545.504H265.645Z" stroke="#EB5153" stroke-opacity="0.08" stroke-width="0.5"/>
<path d="M252.628 541.208C258.531 516.142 268.662 487.784 282.758 457.161C297.307 425.776 313.895 395.32 332.423 365.976C351.423 335.627 372.273 306.405 394.862 278.466C415.634 252.432 438.462 228.003 463.137 205.403C485.668 185.123 506.371 170.356 524.673 161.53C542.293 152.982 557.049 150.311 568.348 153.559C579.646 156.808 587.024 165.826 590.218 180.357C593.522 195.316 592.2 215.746 586.298 240.791C580.395 265.837 570.264 294.216 556.168 324.839C541.62 356.228 525.024 386.684 506.481 416.024C487.488 446.373 466.646 475.594 444.064 503.533C423.243 529.568 400.372 553.995 375.656 576.597C353.125 596.877 332.423 611.644 314.142 620.469C296.523 629.017 281.766 631.688 270.468 628.44C259.169 625.192 251.791 616.174 248.598 601.642C245.294 586.684 246.594 566.254 252.518 541.208H252.628ZM250.668 542.875C226.243 646.498 281.987 662.547 375.172 578.648C468.357 494.75 563.723 342.768 588.148 239.124C612.573 135.48 556.829 119.453 463.622 203.351C370.415 287.249 275.093 439.232 250.668 542.875Z" stroke="#EB5153" stroke-opacity="0.08" stroke-width="0.5"/>
<path d="M238.621 536.336C249.117 505.356 262.382 475.324 278.265 446.583C296.19 413.748 316.129 381.985 337.973 351.466C360.002 320.368 383.881 290.542 409.486 262.14C432.688 236.143 457.954 211.949 485.051 189.781C509.477 170.142 531.435 156.444 550.31 149.008C568.568 141.827 583.192 140.802 593.808 145.93C604.424 151.059 610.458 162.086 611.78 178.712C613.145 195.936 609.357 218.438 600.525 245.599C590.037 276.583 576.772 306.616 560.881 335.353C543.041 368.172 523.184 399.921 501.416 430.427C479.379 461.52 455.501 491.345 429.902 519.753C406.7 545.75 381.434 569.944 354.337 592.112C329.912 611.75 307.953 625.449 289.057 632.885C270.82 640.066 256.196 641.091 245.58 635.963C234.965 630.834 228.93 619.807 227.608 603.181C226.243 585.957 230.031 563.455 238.863 536.294L238.621 536.336ZM236.859 537.896C200.32 650.238 252.606 675.497 353.588 594.355C454.57 513.214 565.881 356.381 602.419 244.061C638.958 131.741 586.672 106.46 485.69 187.602C384.708 268.743 273.133 425.619 236.661 537.939L236.859 537.896Z" stroke="#EB5153" stroke-opacity="0.08" stroke-width="0.5"/>
<path d="M225.649 529.049C239.532 496.198 256.142 464.495 275.314 434.253C318.014 366.27 368.418 303.136 425.586 246.027C451.06 220.364 478.62 196.731 508.001 175.357C534.188 156.722 557.248 144.328 576.541 138.558C595.196 132.98 609.577 133.771 619.246 140.909C628.915 148.046 633.452 161.146 632.681 179.866C631.91 199.248 625.457 223.845 613.52 252.951C599.636 285.802 583.027 317.505 563.855 347.747C542.594 381.728 519.335 414.492 494.192 445.878C469.122 477.383 442.208 507.464 413.583 535.973C388.101 561.637 360.533 585.27 331.145 606.643C304.98 625.278 281.921 637.672 262.605 643.442C243.973 649.02 229.569 648.229 219.922 641.091C210.276 633.954 205.716 620.854 206.465 602.134C207.258 582.752 213.711 558.155 225.649 529.049V529.049ZM223.446 530.566C174.067 650.986 221.816 686.118 330.11 609.037C438.404 531.956 566.211 371.831 615.59 251.433C664.969 131.036 617.22 95.8823 508.926 172.963C400.632 250.044 272.825 410.147 223.446 530.566V530.566Z" stroke="#EB5153" stroke-opacity="0.08" stroke-width="0.5"/>
<path d="M213.799 519.176C231.172 484.714 251.229 451.587 273.793 420.084C298.468 385.26 325.138 351.806 353.676 319.881C381.708 288.311 411.601 258.343 443.205 230.128C474.435 202.347 504.344 179.566 532.117 162.257C559.89 144.947 583.852 134.198 603.344 130.33C622.175 126.591 636.05 129.369 644.596 138.6C653.141 147.832 655.938 163.069 652.899 183.84C649.727 205.36 640.433 231.923 625.214 262.909C607.857 297.38 587.8 330.507 565.22 362.001C540.559 396.83 513.897 430.284 485.359 462.204C457.327 493.774 427.434 523.742 395.83 551.958C364.6 579.738 334.691 602.519 306.918 619.828C279.145 637.138 255.183 647.887 235.691 651.755C216.86 655.494 202.985 652.716 194.439 643.485C185.894 634.253 183.097 619.016 186.136 598.245C189.286 576.725 198.602 550.162 213.799 519.176V519.176ZM211.596 520.608C148.717 648.336 190.871 693.853 305.729 622.286C420.586 550.718 564.625 389.119 627.505 261.392C690.384 133.664 648.23 88.1462 533.373 159.714C418.515 231.282 274.41 392.88 211.53 520.608H211.596Z" stroke="#EB5153" stroke-opacity="0.08" stroke-width="0.5"/>
<path d="M203.624 506.632C224.548 470.818 248.14 436.535 274.212 404.057C302.272 368.76 332.338 335.007 364.269 302.956C395.151 271.691 427.907 242.22 462.366 214.699C496.173 187.922 528.109 166.424 557.247 150.803C586.385 135.181 611.075 126.462 630.5 124.71C649.265 123.043 662.435 128.001 669.615 139.434C676.795 150.867 677.632 168.219 672.126 190.978C666.4 214.485 654.066 242.95 635.478 275.368C614.546 311.177 590.954 345.459 564.889 377.943C536.816 413.23 506.751 446.982 474.832 479.044C443.927 510.316 411.141 539.787 376.647 567.301C342.862 594.078 310.926 615.576 281.766 631.197C252.606 646.818 227.983 655.58 208.535 657.332C189.77 658.999 176.6 654.041 169.42 642.609C162.24 631.176 161.381 613.823 166.909 591.064C172.635 567.558 184.969 539.093 203.558 506.675L203.624 506.632ZM201.157 507.957C124.336 642.096 159.575 698.362 280.246 633.804C400.918 569.246 560.947 408.203 637.856 274.085C714.765 139.968 679.35 83.6372 558.789 148.196C438.227 212.754 278.088 373.797 201.157 507.914V507.957Z" stroke="#EB5153" stroke-opacity="0.08" stroke-width="0.5"/>
<path d="M195.144 491.246C219.649 454.428 246.814 419.343 276.436 386.256C307.838 350.869 341.258 317.216 376.537 285.454C410.17 254.932 445.695 226.436 482.915 200.124C519.123 174.737 552.82 155.013 583.126 141.485C613.431 127.958 638.473 121.419 657.612 122.06C676.091 122.701 688.27 129.967 693.864 143.687C699.459 157.406 698.137 176.831 689.944 201.492C681.487 227.136 665.982 257.054 643.891 290.754C619.393 327.571 592.235 362.655 562.621 395.744C531.233 431.136 497.82 464.789 462.542 496.546C428.907 527.073 393.374 555.57 356.143 581.876C319.957 607.263 286.237 626.987 255.954 640.514C225.67 654.042 200.606 660.581 181.467 659.94C162.989 659.298 150.787 652.033 145.215 638.313C139.643 624.594 140.942 605.169 149.136 580.508C157.593 554.971 173.098 524.946 195.188 491.246H195.144ZM192.7 492.357C101.343 631.689 128.829 699.26 254.148 643.271C379.466 587.282 555.023 428.974 646.314 289.643C737.605 150.311 710.184 82.7398 584.866 138.729C459.547 194.718 284.013 353.026 192.612 492.357H192.7Z" stroke="#EB5153" stroke-opacity="0.08" stroke-width="0.5"/>
<path d="M188.823 472.996C216.917 435.524 247.679 400.006 280.885 366.702C315.515 331.663 352.18 298.572 390.699 267.589C426.876 238.235 464.962 211.167 504.719 186.554C543.063 163.048 578.302 145.546 609.445 134.476C640.587 123.407 665.783 119.517 684.328 122.723C702.233 125.864 713.202 135.545 716.946 151.636C720.69 167.728 716.946 189.183 705.933 215.596C694.547 242.949 675.782 274.385 650.146 309.004C622.088 346.466 591.37 381.984 558.216 415.297C523.58 450.331 486.917 483.423 448.402 514.411C412.225 543.765 374.139 570.832 334.382 595.445C296.038 618.952 260.799 636.454 229.656 647.524C198.514 658.593 173.318 662.482 154.773 659.277C136.868 656.136 125.877 646.455 122.133 630.364C118.389 614.272 122.133 592.817 133.146 566.404C144.532 539.05 163.297 507.615 188.933 472.996H188.823ZM186.378 473.893C80.3311 617.072 98.7875 696.14 227.586 650.366C356.385 604.592 546.807 451.348 652.877 308.106C758.946 164.864 740.468 85.8597 611.647 131.634C482.827 177.408 292.338 330.651 186.268 473.893H186.378Z" stroke="#EB5153" stroke-opacity="0.08" stroke-width="0.5"/>
<path d="M184.947 451.904C216.568 414.186 250.87 378.66 287.603 345.589C325.316 311.366 365.072 279.327 406.667 249.638C445.163 221.885 485.569 196.716 527.602 174.309C567.797 153.217 604.247 138.365 635.918 130.159C667.589 121.953 692.565 120.885 710.185 127.082C727.209 133.002 736.614 145.289 738.354 163.667C740.094 182.045 733.795 205.552 719.853 233.568C705.405 262.546 683.271 295.092 654.044 330.309C622.424 368.028 588.121 403.553 551.389 436.624C513.671 470.842 473.915 502.881 432.325 532.575C393.872 560.249 353.518 585.346 311.543 607.69C271.327 628.782 234.898 643.634 203.227 651.84C171.556 660.046 146.36 661.115 128.741 655.024C111.716 649.105 102.312 636.817 100.55 618.439C98.7878 600.061 105.131 576.554 119.072 548.538C133.586 519.561 155.721 487.014 184.947 451.904ZM182.348 452.566C61.5005 598.223 69.7376 688.789 200.717 654.853C331.696 620.918 535.84 475.347 656.621 329.647C777.403 183.947 769.232 93.4245 638.253 127.36C507.274 161.295 303.108 306.867 182.348 452.566V452.566Z" stroke="#EB5153" stroke-opacity="0.08" stroke-width="0.5"/>
<path d="M183.802 427.628C218.867 390.103 256.63 355.04 296.809 322.702C337.405 289.778 380.067 259.332 424.551 231.538C465.043 205.916 507.439 183.245 551.389 163.71C593.103 145.524 630.391 133.792 662.216 128.856C694.041 123.919 718.488 126.035 734.896 135.267C750.754 144.114 758.462 159.094 757.824 179.823C757.185 200.552 748.243 225.918 731.196 255.301C713.577 285.711 688.028 319.069 655.256 354.457C620.2 391.982 582.443 427.045 542.271 459.383C501.672 492.302 459.01 522.748 414.53 550.547C374.002 576.174 331.569 598.845 287.581 618.375C245.867 636.561 208.58 648.293 176.754 653.229C144.929 658.166 120.46 656.05 104.074 646.818C88.2385 637.971 80.5299 622.991 81.1687 602.262C81.8074 581.533 90.7933 556.167 107.818 526.698C125.438 496.289 151.008 462.931 183.758 427.542L183.802 427.628ZM181.159 427.948C45.6433 574.332 42.4057 676.416 174.134 655.965C305.861 635.514 522.361 500.264 657.877 353.88C793.393 207.497 796.631 105.413 664.903 125.864C533.175 146.315 316.675 281.65 181.159 428.034V427.948Z" stroke="#EB5153" stroke-opacity="0.08" stroke-width="0.5"/>
<path d="M185.608 400.616C223.945 363.752 265.013 329.662 308.482 298.618C351.66 267.512 396.909 239.207 443.932 213.887C486.182 190.83 530.295 171.148 575.836 155.034C618.673 140.289 656.401 132.168 687.984 130.886C719.567 129.604 743.045 135.16 757.933 147.619C772.271 159.586 777.931 177.323 774.76 200.338C771.588 223.353 759.739 250.472 739.521 280.967C718.62 312.551 689.636 346.358 653.406 381.405C615.059 418.259 573.992 452.349 530.532 483.403C487.35 514.505 442.102 542.81 395.082 568.135C352.83 591.165 308.717 610.819 263.178 626.902C220.362 641.647 182.635 649.768 151.052 651.05C119.469 652.332 95.9907 646.776 81.1022 634.317C66.7643 622.35 61.1041 604.613 64.2756 581.598C67.4471 558.582 79.2962 531.464 99.5146 500.969C120.416 469.385 149.378 435.578 185.63 400.531L185.608 400.616ZM183.031 400.531C33.1111 545.931 17.4738 659.32 148.1 653.999C278.727 648.678 506.107 526.699 656.027 381.384C805.946 236.069 821.562 122.808 690.935 128.023C560.309 133.237 332.907 255.301 183.009 400.616L183.031 400.531Z" stroke="#EB5153" stroke-opacity="0.08" stroke-width="0.5"/>
<path d="M190.718 370.549C232.147 334.857 276.324 302.288 322.864 273.124C368.347 244.378 415.886 218.819 465.12 196.641C513.067 175.143 558.679 158.987 600.702 148.623C644.178 137.938 681.906 133.814 712.784 136.592C743.662 139.37 765.885 148.751 778.857 164.544C791.345 179.78 794.671 200.317 788.746 225.555C782.821 250.792 767.955 279.492 744.565 310.82C720.338 343.238 687.984 377.067 648.385 411.451C606.96 447.148 562.783 479.718 516.238 508.876C470.766 537.626 423.234 563.186 374.005 585.359C326.058 606.857 280.445 623.013 238.423 633.377C194.925 644.062 157.219 648.186 126.319 645.408C95.4186 642.63 73.24 633.249 60.2457 617.456C47.7799 602.22 44.4542 581.683 50.3787 556.445C56.3033 531.208 71.1698 502.508 94.5596 471.18C118.786 438.762 151.14 404.933 190.718 370.549V370.549ZM188.207 370.314C24.434 512.381 -4.74826 636.817 123.015 648.229C250.779 659.64 487.078 553.753 650.829 411.686C814.581 269.619 843.785 145.183 716.021 133.878C588.258 122.573 351.937 228.247 188.207 370.314Z" stroke="#EB5153" stroke-opacity="0.08" stroke-width="0.5"/>
<path d="M199.396 337.789C286.524 271.119 383.799 217.987 487.739 180.293C537.029 162.706 583.413 150.738 625.567 144.755C669.22 138.558 706.419 139.049 736.13 146.229C765.841 153.41 786.301 166.851 796.939 186.17C807.181 204.847 807.951 228.183 799.032 255.536C790.112 282.89 772.162 312.936 745.534 344.755C717.982 377.708 682.324 411.152 639.553 444.211C595.339 478.196 548.353 508.641 499.059 535.246C451.634 561.114 402.192 583.336 351.188 601.707C301.875 619.294 255.514 631.261 213.337 637.245C169.707 643.442 132.508 642.95 102.775 635.77C73.0418 628.59 52.6252 615.148 41.9875 595.83C31.7241 577.153 30.9753 553.817 39.8951 526.463C48.815 499.11 66.8089 469 93.5025 437.244C121.055 404.292 156.712 370.848 199.462 337.789H199.396ZM197.039 337.212C20.1833 473.979 -23.5351 608.759 99.383 638.527C222.301 668.295 465.296 581.512 642.13 444.83C818.964 308.149 862.682 173.284 739.786 143.515C616.89 113.747 373.807 200.53 197.017 337.212H197.039Z" stroke="#EB5153" stroke-opacity="0.08" stroke-width="0.5"/>
<path d="M211.883 302.422C258.625 270.639 308.149 242.895 359.887 219.507C408.81 197.105 459.66 178.9 511.855 165.099C561.982 152.021 608.586 144.841 650.344 143.729C693.578 142.618 729.632 148.003 757.757 160.056C785.882 172.108 804.008 189.717 811.981 212.69C819.668 234.872 817.487 260.986 805.484 290.327C793.481 319.667 772.271 350.739 742.45 382.708C711.616 415.789 672.765 448.357 627.086 479.535C580.338 511.309 530.815 539.053 479.083 562.45C430.157 584.848 379.308 603.053 327.114 616.858C276.987 629.936 230.383 637.117 188.625 638.228C145.369 639.339 109.337 633.847 81.2122 621.901C53.0871 609.955 34.961 592.24 26.9662 569.267C19.2797 547.085 21.4821 520.971 33.5735 491.631C45.6649 462.29 66.7642 431.218 96.6073 399.249C127.441 366.168 166.292 333.6 211.971 302.422H211.883ZM209.769 301.439C20.8654 430.363 -38.292 574.973 77.6223 624.444C193.537 673.915 440.694 609.485 629.597 480.561C818.5 351.637 877.658 207.027 761.743 157.556C645.829 108.084 398.672 172.514 209.746 301.439H209.769Z" stroke="#EB5153" stroke-opacity="0.08" stroke-width="0.5"/>
<path d="M228.38 264.618C277.26 235.641 328.885 211.268 382.55 191.833C432.605 173.409 484.406 159.809 537.206 151.23C587.597 143.323 633.827 141.507 674.594 145.845C716.792 150.461 751.349 161.381 777.139 178.37C802.93 195.359 818.523 217.605 823.39 244.253C828.148 269.897 822.796 298.853 807.511 329.989C792.226 361.125 767.867 392.944 734.83 424.636C700.715 457.417 658.934 488.596 610.657 517.296C561.777 546.273 510.151 570.646 456.486 590.081C406.427 608.466 354.626 622.03 301.831 630.577C251.439 638.484 205.21 640.301 164.421 635.962C122.134 631.539 87.6881 620.726 61.8755 603.63C36.0629 586.534 20.5137 564.395 15.6243 537.747C10.8891 512.103 16.219 483.147 31.5259 452.011C46.8329 420.875 71.2799 389.055 104.206 357.364C138.344 324.582 180.124 293.404 228.402 264.704L228.38 264.618ZM226.199 263.315C26.5484 381.918 -48.819 535.246 57.9111 605.895C164.641 676.544 413.076 637.458 612.771 518.77C812.466 400.082 887.834 246.753 781.104 176.105C674.373 105.456 426.071 144.541 226.265 263.229L226.199 263.315Z" stroke="#EB5153" stroke-opacity="0.08" stroke-width="0.5"/>
<path d="M249.083 224.678C299.731 199.036 353.043 178.685 408.121 163.966C458.835 150.161 510.983 141.91 563.591 139.37C613.608 137.233 658.802 141.357 697.939 151.636C738.464 162.321 770.62 179.011 793.701 201.47C816.783 223.93 829.139 250.621 830.636 281.116C832.09 310.457 823.324 341.913 804.603 374.609C785.883 407.305 758.176 439.552 722.21 470.496C684.967 502.55 640.456 531.742 590.064 557.321C539.415 582.963 486.104 603.314 431.026 618.033C380.312 631.839 328.163 640.089 275.556 642.63C225.539 644.767 180.322 640.642 141.207 630.364C100.682 619.679 68.5267 602.989 45.4672 580.529C22.4077 558.069 9.80975 531.271 8.40019 500.884C6.94658 471.543 15.7123 440.086 34.411 407.39C53.1097 374.695 80.8604 342.447 116.826 311.504C154.069 279.449 198.559 250.258 249.083 224.678V224.678ZM247.188 222.819C38.2432 328.664 -54.0609 489.75 41.1945 582.623C136.45 675.497 382.903 665.004 591.804 559.116C800.705 453.229 892.987 292.25 797.842 199.376C702.697 106.503 456.134 116.995 247.233 222.883L247.188 222.819Z" stroke="#EB5153" stroke-opacity="0.08" stroke-width="0.5"/>
<path d="M274.102 182.858C326.08 161.134 380.541 145.502 436.334 136.293C487.264 127.634 539.13 125.358 590.659 129.518C639.575 133.792 683.161 144.477 719.898 161.039C758 178.263 787.292 201.257 806.916 229.423C826.354 256.867 835.575 289.919 833.059 323.129C830.856 356.06 818.457 389.974 796.234 423.931C774.012 457.888 743.045 490.177 704.216 519.924C664.044 550.718 617.132 577.388 564.846 599.206C512.868 620.927 458.406 636.559 402.614 645.771C351.684 654.429 299.818 656.706 248.29 652.546C199.351 648.272 155.787 637.587 119.051 621.025C80.9264 603.801 51.656 580.807 32.0323 552.642C12.6001 525.196 3.39391 492.142 5.93341 458.935C8.13585 426.004 20.5356 392.068 42.8463 358.133C65.157 324.198 96.0351 291.887 134.842 262.14C177.496 229.927 224.314 203.273 274.102 182.858V182.858ZM272.538 180.507C56.193 270.816 -53.4003 438.206 27.7816 554.479C108.963 670.753 350.13 691.759 566.498 601.493C782.865 511.227 892.459 343.837 811.255 227.521C730.051 111.204 488.884 90.2834 272.538 180.507Z" stroke="#EB5153" stroke-opacity="0.08" stroke-width="0.5"/>
<path d="M303.703 139.562C356.567 122.301 411.603 112.086 467.3 109.196C518.008 106.306 568.878 110.67 618.277 122.146C665.365 133.408 706.375 150.995 740.16 174.459C775.135 198.735 800.793 228.269 816.431 262.204C832.051 296.049 836.891 333.652 830.328 370.186C824.139 406.621 807.907 442.843 782.073 477.719C756.238 512.594 722.166 544.542 680.761 572.537C635.987 602.438 587.038 625.976 535.4 642.438C482.535 659.699 427.5 669.914 371.803 672.804C321.087 675.693 270.21 671.329 220.803 659.854C173.715 648.592 132.706 631.005 98.9426 607.541C63.9018 583.265 38.2214 553.731 22.5841 519.796C6.96321 485.95 2.13107 448.345 8.70871 411.814C14.8976 375.379 31.1295 339.157 56.9421 304.281C82.7547 269.406 116.87 237.458 158.254 209.463C203.026 179.559 251.975 156.02 303.615 139.562H303.703ZM302.316 136.784C80.7725 208.694 -46.4844 380.828 18.2012 521.228C82.8868 661.628 314.98 717.147 536.611 645.173C758.242 573.199 885.521 401.129 820.836 260.729C756.15 120.329 524.057 64.8105 302.404 136.784H302.316Z" stroke="#EB5153" stroke-opacity="0.08" stroke-width="0.5"/>
<path d="M337.775 95.1984C391.128 82.9991 446.108 78.9044 500.755 83.0603C550.844 86.6781 599.965 98.3409 646.116 117.573C690.539 136.378 728.289 161.466 758.264 192.111C788.43 222.376 810.219 259.551 821.606 300.178C832.648 340.224 832.724 382.373 821.827 422.456C811.321 462.268 790.993 500.456 761.634 535.973C732.276 571.49 695.12 602.54 651.358 628.248C604.825 655.35 554.167 675.14 501.262 686.887C447.909 699.086 392.928 703.181 338.281 699.025C288.193 695.407 239.071 683.744 192.921 664.513C148.497 645.707 110.748 620.619 80.7724 589.975C49.7841 558.176 28.4425 521.826 17.4083 481.822C6.37778 441.774 6.30187 399.628 17.188 359.544C27.7157 319.731 48.0222 281.544 77.3807 246.027C106.739 210.51 143.916 179.545 187.679 153.837C234.21 126.732 284.869 106.941 337.775 95.1984V95.1984ZM336.872 91.9288C112.333 142.682 -32.6752 317.723 12.9594 482.912C58.5939 648.101 277.626 740.825 502.165 690.071C726.703 639.318 871.712 464.277 826.077 299.003C780.443 133.728 561.41 41.1754 336.872 91.9288V91.9288Z" stroke="#EB5153" stroke-opacity="0.08" stroke-width="0.5"/>
<path d="M376.406 50.2576C429.823 43.737 484.01 46.4867 536.435 58.3782C585.41 69.3281 631.906 88.8831 673.625 116.077C713.424 141.863 747.424 175.209 773.571 214.1C799.614 252.933 816.172 297.025 821.981 343.011C827.79 388.997 822.698 435.663 807.092 479.45C791.425 523.331 766.744 563.672 734.544 598.031C700.873 634.241 660.645 664.155 615.855 686.289C519.179 734.063 408.252 747.281 302.536 723.622C253.567 712.672 207.078 693.117 165.368 665.923C125.568 640.137 91.5684 606.791 65.4214 567.9C39.3677 529.072 22.7985 484.983 16.9776 438.996C11.1568 393.01 16.2382 346.341 31.8342 302.55C47.5408 258.658 72.2669 218.316 104.515 183.969C138.186 147.759 178.414 117.845 223.204 95.7113C271.113 71.866 323.01 56.4753 376.472 50.2576H376.406ZM375.987 46.4965C151.338 73.2516 -11.4217 249.211 12.5849 439.488C36.5915 629.765 238.379 762.28 463.116 735.503C687.852 708.727 850.524 532.789 826.518 342.512C802.511 152.235 600.658 19.7201 375.921 46.4965H375.987Z" stroke="#EB5153" stroke-opacity="0.08" stroke-width="0.5"/>
<path d="M419.463 5.27397C511.177 5.33043 600.052 36.1458 671.032 92.5C742.012 148.854 790.734 227.283 808.944 314.499C827.153 401.716 813.732 492.36 770.953 571.075C728.173 649.79 658.666 711.737 574.206 746.423C477.213 785.396 368.272 785.573 271.146 746.914C174.019 708.256 96.5886 633.9 55.7437 540.064C14.8987 446.229 13.9537 340.53 53.1146 246.021C92.2756 151.512 168.365 75.864 264.785 35.5764C313.72 15.486 366.328 5.17961 419.463 5.27397V5.27397ZM419.463 1C339.965 1 262.254 23.8731 196.154 66.7268C130.055 109.581 78.5363 170.49 48.114 241.753C17.6917 313.017 9.73188 391.433 25.241 467.085C40.7502 542.738 79.0317 612.229 135.245 666.772C191.458 721.314 263.077 758.458 341.047 773.506C419.017 788.554 499.834 780.831 573.28 751.313C646.726 721.795 709.501 671.807 753.668 607.672C797.834 543.537 821.408 468.135 821.408 391C821.408 339.784 811.011 289.07 790.811 241.753C770.612 194.436 741.005 151.443 703.681 115.228C666.357 79.0135 622.047 50.2863 573.28 30.687C524.514 11.0876 472.247 1 419.463 1V1Z" stroke="#EB5153" stroke-opacity="0.08" stroke-width="0.5"/>
</svg>
